# xmcd
#
# Track frame offsets:
#	150
#	18215
#	32547
#	45502
#	59170
#	78921
#	92711
#	107694
#	127180
#	138271
#	150034
#	167944
#	187216
#	197482
#	209910
#	220320
#	232071
#	248231
#
# Disc length: 3536 seconds
#
# Revision: 2
# Processed by: cddbd v1.5.2PL0 Copyright (c) Steve Scherf et al.
# Submitted via: EZCDAudioConverter 4.0.5.1
#
DISCID=010dce12
DTITLE=Hank Williams Jr. - 35 Biggest Hits
DYEAR=2015
DGENRE=Country
TTITLE0=Family Tradition
TTITLE1=Whiskey Bent And Hell Bound 
TTITLE2=Women I've Never Had
TTITLE3=Outlaw Women
TTITLE4=Kaw-Liga
TTITLE5=Old Habits
TTITLE6=Dinosaur
TTITLE7=The Blues Man
TTITLE8=Texas Women
TTITLE9=Dixie On My Mind
TTITLE10=All My Rowdy Friends (Have Settled Down) 
TTITLE11=A Country Boy Can Survive
TTITLE12=Honky Tonkin'
TTITLE13=If Heaven Ain't A Lot Like Dixie 
TTITLE14=The American Dream
TTITLE15=Gonna Go Huntin' Tonight
TTITLE16=Leave Them Boys Alone
TTITLE17=Queen Of My Heart
EXTD=
EXTT0=
EXTT1=
EXTT2=
EXTT3=
EXTT4=
EXTT5=
EXTT6=
EXTT7=
EXTT8=
EXTT9=
EXTT10=
EXTT11=
EXTT12=
EXTT13=
EXTT14=
EXTT15=
EXTT16=
EXTT17=
PLAYORDER=
